<svg xmlns="http://www.w3.org/2000/svg" width="71.291" height="54.022" viewBox="0 0 71.291 54.022">
  <path id="Combined_shape_7" data-name="Combined shape 7" d="M9.765,55.109a8.71,8.71,0,0,1-8.718-8.681V9.767a8.709,8.709,0,0,1,8.718-8.68h53.87a8.7,8.7,0,0,1,8.7,8.695V46.428a8.709,8.709,0,0,1-8.717,8.681ZM5.029,9.782V46.428a4.731,4.731,0,0,0,4.736,4.715h53.87a4.73,4.73,0,0,0,4.735-4.715h-.014V9.782A4.73,4.73,0,0,0,63.62,5.067H9.765A4.731,4.731,0,0,0,5.029,9.782ZM60.773,47.075,43.042,30.3l-4.971,4.435a1.992,1.992,0,0,1-2.655.014l-4.838-4.3L12.744,47.06a2,2,0,0,1-1.356.528,2.04,2.04,0,0,1-1.461-.632,1.985,1.985,0,0,1,.088-2.805L27.583,27.775,9.941,12.074a1.974,1.974,0,0,1-.162-2.805A1.994,1.994,0,0,1,12.6,9.106L31.685,26.115a2.742,2.742,0,0,1,.324.279c0,.014.015.029.03.043l4.691,4.172L60.773,9.121a2.006,2.006,0,0,1,2.817.148,1.986,1.986,0,0,1-.148,2.805L46.007,27.643,63.517,44.2a1.988,1.988,0,0,1-2.743,2.879Z" transform="translate(-1.047 -1.087)" fill="#fdbe51"/>
</svg>
