<svg xmlns="http://www.w3.org/2000/svg" width="66.475" height="66.665" viewBox="0 0 66.475 66.665">
  <path id="Combined_shape_12" data-name="Combined shape 12" d="M17.192,66.665a2.275,2.275,0,0,1-1.621-.673l-7.548-7.57L3.913,62.544a2.288,2.288,0,0,1-3.242,0,2.305,2.305,0,0,1,0-3.251L30.3,29.575a19.454,19.454,0,1,1,16.687,9.5,19.313,19.313,0,0,1-13.865-5.834l-10.4,10.431,7.548,7.57a2.307,2.307,0,0,1,0,3.251,2.288,2.288,0,0,1-3.242,0l-7.548-7.57-2.489,2.5L22.251,54.7a2.3,2.3,0,0,1,0,3.25,2.285,2.285,0,0,1-3.241,0l-5.256-5.271-2.489,2.5,7.548,7.57a2.307,2.307,0,0,1,0,3.251A2.275,2.275,0,0,1,17.192,66.665ZM46.992,4.6a14.942,14.942,0,1,0,14.9,14.943A14.938,14.938,0,0,0,46.992,4.6Z" transform="translate(-0.001)" fill="#fdbe51"/>
</svg>
